<?xml version="1.0" encoding="UTF-8" standalone="no"?>
<svg width="22px" height="14px" viewBox="0 0 22 14" version="1.1" xmlns="http://www.w3.org/2000/svg" xmlns:xlink="http://www.w3.org/1999/xlink">
    <!-- Generator: sketchtool 40.1 (33804) - http://www.bohemiancoding.com/sketch -->
    <title>48F98C86-FAB5-441C-B4F8-4FAD7646A716</title>
    <desc>Created with sketchtool.</desc>
    <defs></defs>
    <g id="Page-1" stroke="none" stroke-width="1" fill="none" fill-rule="evenodd">
        <g id="2.-Login-Page" transform="translate(-606.000000, -611.000000)" fill="#FFFFFF">
            <g id="Sign-in-with-Google" transform="translate(598.000000, 598.000000)">
                <g id="icon-google" transform="translate(8.000000, 13.000000)">
                    <path d="M7,8.4 L10.97,8.4 C10.81,9.43 9.77,11.42 7,11.42 C4.61,11.42 2.66,9.44 2.66,7 C2.66,4.56 4.61,2.58 7,2.58 C8.36,2.58 9.27,3.16 9.79,3.66 L11.69,1.83 C10.47,0.69 8.89,0 7,0 C3.13,0 0,3.13 0,7 C0,10.87 3.13,14 7,14 C11.04,14 13.72,11.16 13.72,7.16 C13.72,6.7 13.67,6.35 13.61,6 L7,6 L7,8.4 Z" id="G"></path>
                    <polyline id="+" points="22 6 20 6 20 4 18 4 18 6 16 6 16 8 18 8 18 10 20 10 20 8 22 8"></polyline>
                </g>
            </g>
        </g>
    </g>
</svg>