<svg xmlns="http://www.w3.org/2000/svg" xmlns:xlink="http://www.w3.org/1999/xlink" viewBox="0 0 158.99 175.49"><defs><style>.cls-1,.cls-6{fill:none;}.cls-2{fill:#2f93e0;}.cls-3{fill:#fff;}.cls-4{clip-path:url(#clip-path);}.cls-5{fill:#0f2535;}.cls-6{stroke:#2f93e0;stroke-miterlimit:10;stroke-width:0.78px;}.cls-7{fill:#6db3e9;}</style><clipPath id="clip-path"><polygon class="cls-1" points="17.66 120.52 31.18 134.04 38.46 130.4 34.82 150.68 96.19 173.56 137.01 157.18 147.41 146.78 148.71 140.28 138.83 125.46 136.23 123.64 146.37 113.5 130.18 81 103.66 86.85 93.13 90.94 65.5 90.62 60.82 86.2 32.28 80.8 17.66 120.52"/></clipPath></defs><title>OctoManager</title><g id="Layer_1" data-name="Layer 1"><path class="cls-2" d="M98,156.92c-2.19,0-4.44-1.19-6.7-3.55-4.54-4.73-5.55-10.92-6.53-16.92-.75-4.58-1.45-8.91-3.63-12.52-1.21-2-2.26-2-2.6-2-3.78,0-9.15,9-11.45,12.83-.6,1-1.08,1.81-1.44,2.33-4.16,6.09-12.08,16.31-18.37,16.31h0c-1.56,0-3.76-.63-5.35-3.65-3.68-7,0-16.72,3.41-24.23-2.1,1.26-4.59,2.51-7,3.68l-1.23.6c-6,3-11.28,4.42-16.71,4.42-.73,0-1.48,0-2.21-.08-3-.22-7.09-.82-7.8-3.59s2-5.7,9.24-10.4h0L20,120c8.8-5.67,22.85-17.27,18.06-31.25-.71-2.06-1.5-4.07-2.27-6C33.62,77.29,31.6,72.17,31.23,66a52.1,52.1,0,0,1,3.15-21.08C42,24.49,61.52,11.31,84.16,11.31a56.11,56.11,0,0,1,16.15,2.38c12.77,3.84,24,13.61,29.95,26.14,5.5,11.54,6,24,1.5,35.06-5.46,13.33-8.36,23.59,4.12,34.22.76.65,1.82,1.41,3,2.21,4.2,3,9.42,6.73,9.39,11.46a3.75,3.75,0,0,1-4.09,4h0a18.09,18.09,0,0,1-7-2.09c4.78,6.14,8.76,12.17,7.22,15.9-.65,1.59-2.15,2.53-4.43,2.8a11.59,11.59,0,0,1-1.34.08c-7.91,0-14.74-8-20.22-14.39-1.54-1.8-3-3.5-4.28-4.78-1.9-1.9-3-2.18-3.42-2.18a1,1,0,0,0-.75.35c-2.21,2.26-2,11.51-1.9,15.46,0,.89,0,1.64,0,2.16C108,145.79,104.89,156.92,98,156.92Z"/><path class="cls-3" d="M84.16,12.66A54.79,54.79,0,0,1,99.92,15c24,7.21,40.54,35.1,30.59,59.4-5.74,14-8.32,24.85,4.49,35.76,3.47,3,11.9,7.39,11.87,12.64a2.41,2.41,0,0,1-2.74,2.69c-4,0-11.21-4.49-12.28-5.34,1.71,3,18.7,20.71,7.89,22a10.19,10.19,0,0,1-1.18.07c-9.47,0-17.8-13-23.54-18.78-1.82-1.81-3.25-2.57-4.38-2.57-5.1,0-3.93,15.55-4,19.31-.06,5.55-3.08,15.47-8.62,15.47-1.68,0-3.59-.91-5.73-3.13-7.57-7.88-4.71-20.45-10-29.2-1.13-1.88-2.41-2.66-3.76-2.66-5.5,0-12.07,12.94-14,15.76-2.13,3.11-11,15.72-17.25,15.72-1.62,0-3.06-.85-4.16-2.93-4.33-8.21,2.59-21.08,6-28.5-1.24,2.7-10,6.68-12.6,8a35.32,35.32,0,0,1-16.11,4.28q-1,0-2.11-.08c-13.27-1-3.5-7.89,2.06-11.5l.84-.54-.54.35c10.76-6.93,23.41-18.82,18.61-32.82-2.62-7.63-6.24-14.17-6.72-22.41a50.48,50.48,0,0,1,3.07-20.53c7.71-20.71,27.6-32.7,48.51-32.7M20.7,121.12l-.29.19-.19.13.49-.31M84.16,10c-23.21,0-43.24,13.53-51,34.46A53.46,53.46,0,0,0,29.88,66c.38,6.42,2.53,11.89,4.62,17.17.76,1.93,1.55,3.93,2.25,6,4.49,13.1-9,24.21-17.51,29.67h0l-.14.09-.15.1c-6.62,4.29-10.82,8-9.81,11.87.93,3.61,5.59,4.35,9,4.6.77.06,1.54.08,2.3.08,5.65,0,11.16-1.45,17.33-4.57l1.21-.6q1.92-.94,3.57-1.79c-2.91,7.1-5.15,15.37-1.79,21.76,1.91,3.62,4.61,4.37,6.55,4.37,3.62,0,9.94-2.93,19.49-16.9.38-.56.87-1.37,1.48-2.4a74.39,74.39,0,0,1,5.43-8.19c3-3.79,4.58-4,4.85-4,.55,0,1.14.84,1.44,1.35,2,3.39,2.73,7.6,3.45,12,1,6.2,2.06,12.61,6.89,17.64,2.53,2.63,5.11,4,7.68,4,7.88,0,11.27-11.82,11.33-18.15,0-.55,0-1.28,0-2.2a83.86,83.86,0,0,1,.14-9c.34-3.78,1-5,1.3-5.38a6.93,6.93,0,0,1,2.33,1.75c1.24,1.24,2.68,2.92,4.21,4.71,5.66,6.62,12.71,14.86,21.25,14.86a12.94,12.94,0,0,0,1.49-.09c3.5-.41,4.94-2.2,5.53-3.63,1.46-3.54-.89-8.27-4.57-13.47a11.93,11.93,0,0,0,3.13.49,5.09,5.09,0,0,0,5.44-5.37c0-5.43-5.51-9.39-10-12.57-1.1-.79-2.14-1.53-2.86-2.14C126,98.87,126.94,90.21,133,75.4c4.68-11.43,4.14-24.27-1.53-36.16-6.14-12.87-17.65-22.91-30.78-26.85A57.46,57.46,0,0,0,84.16,10Z"/><g class="cls-4"><path class="cls-5" d="M20.7,121.12c10.76-6.93,23.41-18.82,18.61-32.82-2.62-7.63-6.24-14.17-6.72-22.41a50.48,50.48,0,0,1,3.07-20.53C45.3,19.45,74,7.19,99.92,15c24,7.21,40.54,35.1,30.59,59.4-5.74,14-8.32,24.85,4.49,35.76,3.47,3,11.9,7.39,11.87,12.64,0,6.87-13.52-1.46-15-2.66,1.71,3,18.7,20.71,7.89,22-10,1.16-18.74-12.74-24.72-18.71-10-10-8.3,12.15-8.34,16.73-.07,7.23-5.18,21.89-14.35,12.34-7.57-7.88-4.71-20.45-10-29.2-5.77-9.59-15.36,9.59-17.76,13.1-2.68,3.92-16.08,22.9-21.41,12.79-4.33-8.21,2.59-21.08,6-28.5-1.24,2.7-10,6.68-12.6,8-5.8,2.93-11.69,4.67-18.22,4.2-13.5-1-3.15-8.14,2.35-11.68Z"/><path class="cls-3" d="M84.16,12.66A54.79,54.79,0,0,1,99.92,15c24,7.21,40.54,35.1,30.59,59.4-5.74,14-8.32,24.85,4.49,35.76,3.47,3,11.9,7.39,11.87,12.64a2.41,2.41,0,0,1-2.74,2.69c-4,0-11.21-4.49-12.28-5.34,1.71,3,18.7,20.71,7.89,22a10.19,10.19,0,0,1-1.18.07c-9.47,0-17.8-13-23.54-18.78-1.82-1.81-3.25-2.57-4.38-2.57-5.1,0-3.93,15.55-4,19.31-.06,5.55-3.08,15.47-8.62,15.47-1.68,0-3.59-.91-5.73-3.13-7.57-7.88-4.71-20.45-10-29.2-1.13-1.88-2.41-2.66-3.76-2.66-5.5,0-12.07,12.94-14,15.76-2.13,3.11-11,15.72-17.25,15.72-1.62,0-3.06-.85-4.16-2.93-4.33-8.21,2.59-21.08,6-28.5-1.24,2.7-10,6.68-12.6,8a35.32,35.32,0,0,1-16.11,4.28q-1,0-2.11-.08c-13.27-1-3.5-7.89,2.06-11.5l.84-.54-.54.35c10.76-6.93,23.41-18.82,18.61-32.82-2.62-7.63-6.24-14.17-6.72-22.41a50.48,50.48,0,0,1,3.07-20.53c7.71-20.71,27.6-32.7,48.51-32.7M20.7,121.12h0m0,0-.29.19-.19.13.49-.31M84.16,10c-23.21,0-43.24,13.53-51,34.46A53.46,53.46,0,0,0,29.88,66c.38,6.42,2.53,11.89,4.62,17.17.76,1.93,1.55,3.93,2.25,6,4.49,13.09-9,24.18-17.48,29.65l-.07,0-.11.07-.15.1c-6.62,4.29-10.82,8-9.81,11.87.93,3.61,5.59,4.35,9,4.6.77.06,1.54.08,2.3.08,5.65,0,11.16-1.45,17.33-4.57l1.21-.6q1.92-.94,3.57-1.79c-2.91,7.1-5.15,15.37-1.79,21.76,1.91,3.62,4.61,4.37,6.55,4.37,3.62,0,9.94-2.93,19.49-16.9.38-.56.87-1.37,1.48-2.4a74.39,74.39,0,0,1,5.43-8.19c3-3.79,4.58-4,4.85-4,.55,0,1.14.84,1.44,1.35,2,3.39,2.73,7.6,3.45,12,1,6.2,2.06,12.61,6.89,17.64,2.53,2.63,5.11,4,7.68,4,7.88,0,11.27-11.82,11.33-18.15,0-.55,0-1.28,0-2.2a83.86,83.86,0,0,1,.14-9c.34-3.78,1-5,1.3-5.38a6.93,6.93,0,0,1,2.33,1.75c1.24,1.24,2.68,2.92,4.21,4.71,5.66,6.62,12.71,14.86,21.25,14.86a12.94,12.94,0,0,0,1.49-.09c3.5-.41,4.94-2.2,5.53-3.63,1.46-3.54-.89-8.27-4.57-13.47a11.93,11.93,0,0,0,3.13.49,5.09,5.09,0,0,0,5.44-5.37c0-5.43-5.51-9.39-10-12.57-1.1-.79-2.14-1.53-2.86-2.14C126,98.87,126.94,90.21,133,75.4c4.68-11.43,4.14-24.27-1.53-36.16-6.14-12.87-17.65-22.91-30.78-26.85A57.46,57.46,0,0,0,84.16,10Z"/></g><polygon class="cls-3" points="106.57 89.31 58.25 89.31 82.79 117.27 83.18 117.27 106.57 89.31"/><path class="cls-5" d="M71.67,89.88a1.6,1.6,0,0,1,1.2-.66h18.4a1.39,1.39,0,0,1,1.13.7l.27.54a.94.94,0,0,1-.29,1.15l-7.57,5.33a2.76,2.76,0,0,1-1.42.43l-2.47-.07a3.16,3.16,0,0,1-1.43-.46l-7.93-5.35a.8.8,0,0,1-.22-1.09Z"/><path class="cls-5" d="M84.38,96.89a1,1,0,0,0-.95-.76H80.7a1,1,0,0,0-.95.76L75.9,114.45a1.44,1.44,0,0,0,.43,1.27l5.15,4.41a.94.94,0,0,0,1.18,0l5.15-4.41a1.44,1.44,0,0,0,.43-1.27Z"/><path class="cls-3" d="M51.14,88.89c.18-.27,8.5-3.06,8.5-3.06a3.46,3.46,0,0,1,1.5-.09l16,3.24a.52.52,0,0,1,.37.82l-4.41,7.42a1.05,1.05,0,0,1-1.15.45S49.76,91,51.14,88.89Z"/><path class="cls-6" d="M51.14,88.89c.18-.27,8.5-3.06,8.5-3.06a3.46,3.46,0,0,1,1.5-.09l16,3.24a.52.52,0,0,1,.37.82l-4.41,7.42a1.05,1.05,0,0,1-1.15.45S49.76,91,51.14,88.89Z"/><path class="cls-5" d="M110.52,87.72c3.14,0,16.74-4.78,16.74-4.78L124,102.58,82.27,122.73l-2.8-2.86s23.78-28.71,26-32.61C107.31,87.26,108.26,87.72,110.52,87.72Z"/><path class="cls-3" d="M110.81,89.19c-.18-.27-5.44-3-5.44-3A2.71,2.71,0,0,0,103.9,86L87.34,89a.51.51,0,0,0-.37.81l4.41,7.42a1,1,0,0,0,1.14.43S112.19,91.29,110.81,89.19Z"/><path class="cls-6" d="M110.81,89.19c-.18-.27-5.44-3-5.44-3A2.71,2.71,0,0,0,103.9,86L87.34,89a.51.51,0,0,0-.37.81l4.41,7.42a1,1,0,0,0,1.14.43S112.19,91.29,110.81,89.19Z"/><path class="cls-5" d="M56.07,87.26c-3.14,0-13.45,2.06-13.45,2.06l18.46,24.05,24.31,8.71-.65-1.43s-21-29.49-23.27-33.39Z"/><path class="cls-2" d="M59.55,85.45a2.13,2.13,0,0,1,1.22.77l21.12,30.21c.25.35.14.46-.23.25L54.39,100.83a.42.42,0,0,1,0-.8l6.11-3.69c.37-.22.32-.45-.11-.51l-7.93-1.07a1.09,1.09,0,0,1-.88-.88l-1.25-9.2A.54.54,0,0,1,51,84Z"/><path class="cls-2" d="M105.34,85.72a2.24,2.24,0,0,0-1.23.76l-22,30c-.25.35-.16.45.22.24l27.83-15.92a.42.42,0,0,0,0-.79L104,96.34c-.37-.22-.32-.45.11-.51l7.93-1.07a1.25,1.25,0,0,0,1-.86l2.34-9.23a.47.47,0,0,0-.58-.62Z"/><circle class="cls-3" cx="24.63" cy="122.08" r="1.3"/><circle class="cls-3" cx="138.28" cy="115.81" r="1.3"/><circle class="cls-7" cx="62.67" cy="54.96" r="15.5"/><circle class="cls-7" cx="103.24" cy="54.96" r="15.5"/><path class="cls-5" d="M102.53,36.8A18.22,18.22,0,0,0,84.74,51.09H80.23a18.26,18.26,0,1,0,.41,4.48h3.7A18.21,18.21,0,1,0,102.53,36.8ZM62.45,69.31A14.29,14.29,0,1,1,76.74,55,14.29,14.29,0,0,1,62.45,69.31Zm40.08,0A14.29,14.29,0,1,1,116.82,55,14.29,14.29,0,0,1,102.53,69.31Z"/><circle class="cls-5" cx="62.23" cy="54.7" r="2.45"/><circle class="cls-5" cx="102.79" cy="54.7" r="2.45"/><rect class="cls-3" x="95.51" y="94.88" width="27.32" height="12.41" rx="0.62" ry="0.62"/><path class="cls-5" d="M122.21,95.5v11.17H96.13V95.5h26.08m0-1.24H96.13a1.24,1.24,0,0,0-1.24,1.24v11.17a1.24,1.24,0,0,0,1.24,1.24h26.08a1.24,1.24,0,0,0,1.24-1.24V95.5a1.24,1.24,0,0,0-1.24-1.24Z"/><path class="cls-5" d="M103.74,101.34a2.74,2.74,0,0,1-.62,1.93,2.7,2.7,0,0,1-3.57,0,2.76,2.76,0,0,1-.62-1.94,2.71,2.71,0,0,1,.62-1.93,2.33,2.33,0,0,1,1.79-.67,2.3,2.3,0,0,1,1.78.67A2.75,2.75,0,0,1,103.74,101.34Zm-3.69,0a2.11,2.11,0,0,0,.32,1.28,1.12,1.12,0,0,0,1,.43q1.28,0,1.28-1.7t-1.28-1.71a1.13,1.13,0,0,0-1,.43A2.1,2.1,0,0,0,100.05,101.34Z"/><path class="cls-5" d="M108.7,101.3a2.49,2.49,0,0,1-.71,1.91,2.9,2.9,0,0,1-2.05.66H104.5V98.82h1.59a2.67,2.67,0,0,1,1.92.65A2.4,2.4,0,0,1,108.7,101.3Zm-1.11,0q0-1.63-1.44-1.63h-.57V103H106Q107.58,103,107.58,101.33Z"/><path class="cls-5" d="M111.61,99.64a1.09,1.09,0,0,0-.94.45,2.12,2.12,0,0,0-.33,1.27q0,1.69,1.27,1.69a4,4,0,0,0,1.29-.27v.9a3.58,3.58,0,0,1-1.39.26,2.12,2.12,0,0,1-1.69-.67,2.84,2.84,0,0,1-.58-1.92,3.14,3.14,0,0,1,.29-1.38,2.07,2.07,0,0,1,.82-.91,2.44,2.44,0,0,1,1.26-.32,3.4,3.4,0,0,1,1.48.36l-.35.87a5.68,5.68,0,0,0-.57-.23A1.7,1.7,0,0,0,111.61,99.64Z"/><path class="cls-5" d="M115.83,103.88l-1.22-4h0q.07,1.21.07,1.61v2.35h-1V98.82h1.46l1.2,3.86h0l1.27-3.86h1.46v5.05h-1v-2.39q0-.17,0-.39t0-1.18h0l-1.3,4Z"/></g></svg>